<svg xmlns:xlink="http://www.w3.org/1999/xlink"
    xmlns="http://www.w3.org/2000/svg" viewBox="0 0 205 230" class="roots-wrapper" width="575" height="575">
    <g transform="rotate(0 0 0)">
        <svg xmlns="http://www.w3.org/2000/svg"
            xmlns:xlink="http://www.w3.org/1999/xlink" viewBoxSize="575" data-root-id="1651194723765" version="1.1" id="Calque_1" x="0" y="0" viewBox="106.8600845336914 119.6300277709961 810.0099487304688 721.0599975585938" xml:space="preserve" height="205" width="230" preserveAspectRatio="xMinYMin" zoom="1" editorType="buyer" data-layer-role="icon" style="height: 205px;width: 230px;/* top: 0; *//* left: 0; */">
            <path class="st0" d="M295.1,645.52c33.48-2.2,66.68-6.26,99.38-12.11c10.04-1.76,19.94-3.78,29.8-5.93  c-15.02-7.21-28.14-16.61-39.29-28.25c-29.31-30.58-43.95-75.18-43.95-133.78c0-52.16,13.67-93.7,41.05-124.61  c27.37-30.91,64.87-46.37,112.53-46.37c25.75,0,48.13,4.83,67.14,14.49c18.98,9.66,33.96,23.51,44.92,41.53h203.81  c-13.52-71.48-48.3-127.82-104.33-169.04c-56.02-41.2-126.87-61.82-212.51-61.82c-68.26,0-128.47,14.65-180.63,43.95  c-52.16,29.31-92.58,70.2-121.23,122.68c-28.66,52.49-42.98,112.22-42.98,179.18c0,67.62,14.32,127.67,42.98,180.15  c0.18,0.33,0.39,0.64,0.58,0.98C226.74,648.05,261.05,647.78,295.1,645.52z" name="Layer %{number}" zoom="1" data-layer-id="0267932423765" style="" fill="#E30A07"/>
            <path class="st0" d="M763.67,419.08H464.68v136.2h154.9c14.5-8.8,28.52-18.26,41.89-28.39C701.7,496.43,736.13,459.68,763.67,419.08  z" name="Layer %{number}" zoom="1" data-layer-id="6012255323765" style="" fill="#E30A07"/>
            <path class="st0" d="M905.98,357.84c-46.09,16.04-92.18,32.08-138.27,48.12c8.69,4.9,17.58,10.1,26.65,15.6  c-5.16,8.84-10.72,17.48-16.48,25.99c-27.55,40.57-61.93,77.37-102.22,107.84c-13.31,10.11-27.33,19.57-41.85,28.33  c-12.39,7.55-25.13,14.59-38.22,20.93c-28.4,14.02-58.44,25.06-90.12,34.17c-22.42,6.48-44.56,12.24-66.98,17.15  c-9.82,2.14-19.72,4.13-29.75,5.91c-32.74,5.84-65.91,9.89-99.44,12.1c-34.02,2.28-68.33,2.56-102.71,1.07  c-33.24-1.42-66.48-4.48-99.73-9.04c35.95,10.46,72.6,19.22,109.69,25.91c0,0,0.01,0,0.01,0l0.01,0.02  c27.76,43.97,64.79,78.92,111.15,104.8c52.48,29.31,112.85,43.95,181.12,43.95c56.03,0,105.92-10.15,149.72-30.43  c43.79-20.28,80.01-46.2,108.67-77.76c28.65-31.55,50.38-65.35,65.2-101.43v-76.23c0.01-0.01,0.02-0.02,0.03-0.03  c21.75-19.77,42.17-41.32,60.81-64.56c8.2,6.48,16.06,12.91,23.6,19.26C913.26,458.96,909.62,408.4,905.98,357.84z M238.48,695.91  C239.76,696.14,239.76,696.14,238.48,695.91L238.48,695.91z" name="Layer %{number}" zoom="1" data-layer-id="9654872323765" style="" fill="#E30A07"/>
        </svg>
    </g>
</svg>